<svg width="582" height="197" xmlns="http://www.w3.org/2000/svg" xmlns:xlink="http://www.w3.org/1999/xlink" xml:space="preserve" overflow="hidden"><defs><clipPath id="clip0"><path d="M69.0001 198.5C69.0001 155.698 103.698 121 146.5 121L147.5 121C190.302 121 225 155.698 225 198.5 225 241.302 190.302 276 147.5 276L146.5 276C103.698 276 69.0001 241.302 69.0001 198.5Z" fill-rule="evenodd" clip-rule="evenodd"/></clipPath></defs><g transform="translate(-45 -100)"><g><path d="M51.9999 196.599C51.9999 147.115 92.1147 107 141.599 107L531.401 107C580.885 107 621 147.115 621 196.599L621 201.401C621 250.885 580.885 291 531.401 291L141.599 291C92.1147 291 51.9999 250.885 51.9999 201.401Z" stroke="#FFFF00" stroke-width="10.3125" stroke-linecap="butt" stroke-linejoin="miter" stroke-miterlimit="8" stroke-opacity="1" fill="#F5F5F5" fill-rule="evenodd" fill-opacity="1"/><text fill="#000000" fill-opacity="1" font-family="Helvetica Neue,Helvetica Neue_MSFontService,sans-serif" font-style="normal" font-variant="normal" font-weight="700" font-stretch="normal" font-size="73" text-anchor="start" direction="ltr" writing-mode="lr-tb" unicode-bidi="normal" text-decoration="none" transform="matrix(1 0 0 1 245.688 198)">Snap Inc.</text><text fill="#000000" fill-opacity="1" font-family="Helvetica Neue,Helvetica Neue_MSFontService,sans-serif" font-style="normal" font-variant="normal" font-weight="700" font-stretch="normal" font-size="46" text-anchor="start" direction="ltr" writing-mode="lr-tb" unicode-bidi="normal" text-decoration="none" transform="matrix(1 0 0 1 245.688 259)">Creative Vision</text><g clip-path="url(#clip0)"><g><g><path d="M0 0 155 0 155 155 0 155Z" fill="#FFFC00" fill-rule="nonzero" fill-opacity="1" transform="matrix(1.00645 0 0 1 69.0001 121)"/><path d="M129.737 104.065C129.283 102.551 127.088 101.492 127.088 101.492L127.088 101.492C126.891 101.371 126.694 101.28 126.543 101.204 122.895 99.4483 119.671 97.3291 116.961 94.9224 114.782 92.9849 112.905 90.8657 111.406 88.5952 109.575 85.8403 108.712 83.5244 108.349 82.2832 108.137 81.4658 108.182 81.148 108.349 80.7241 108.5 80.376 108.909 80.0278 109.121 79.8765 110.347 79.0137 112.33 77.7271 113.541 76.94 114.585 76.2588 115.493 75.6685 116.023 75.3052 117.733 74.1094 118.899 72.8985 119.595 71.5816 120.488 69.8862 120.594 68.0093 119.898 66.1777 118.96 63.6953 116.644 62.2119 113.707 62.2119 113.056 62.2119 112.375 62.2876 111.709 62.4238 110.029 62.7871 108.424 63.3926 107.092 63.9072 107.001 63.9526 106.896 63.877 106.896 63.771 107.032 60.4561 107.198 56.0059 106.835 51.7676 106.502 47.938 105.715 44.7139 104.428 41.8984 103.126 39.0679 101.461 36.979 100.129 35.4805 98.8731 34.0425 96.6782 31.9233 93.3482 30.0161 88.6709 27.3369 83.3428 25.9746 77.5152 25.9746 71.7027 25.9746 66.3897 27.3369 61.6973 30.001 58.1856 32.0142 55.9302 34.2847 54.9009 35.4653 53.584 36.979 51.9038 39.0679 50.6021 41.8833 49.3154 44.6987 48.5283 47.9229 48.1953 51.7524 47.832 55.9907 47.9834 60.0928 48.1348 63.7559 48.1348 63.8618 48.0288 63.9375 47.938 63.8921 46.606 63.3775 45.0015 62.772 43.3213 62.4087 42.6553 62.2573 41.9893 62.1968 41.3232 62.1968 38.3867 62.1968 36.0708 63.6802 35.1323 66.1626 34.436 68.0093 34.542 69.8711 35.4351 71.5664 36.1314 72.8833 37.2969 74.0943 39.0073 75.2901 39.5371 75.6533 40.4453 76.2437 41.4898 76.9248 42.6856 77.6968 44.6079 78.938 45.834 79.8159 45.9854 79.9219 46.5 80.3154 46.6665 80.7241 46.8482 81.1631 46.8784 81.481 46.6514 82.3438 46.273 83.6001 45.4102 85.8858 43.6089 88.5952 42.1104 90.8657 40.2334 92.9849 38.0537 94.9224 35.3291 97.3291 32.105 99.4483 28.4722 101.204 28.3057 101.28 28.0938 101.386 27.8667 101.522 27.8667 101.522 25.687 102.627 25.2783 104.065 24.6729 106.184 26.2773 108.167 27.9424 109.242 30.6367 110.982 33.9214 111.921 35.8286 112.42 36.3584 112.557 36.8428 112.693 37.2817 112.829 37.5542 112.92 38.2354 113.177 38.5381 113.556 38.9014 114.025 38.9468 114.615 39.083 115.281 39.2949 116.401 39.7642 117.779 41.1416 118.732 42.6553 119.777 44.5928 119.853 47.0298 119.943 49.5879 120.034 52.7666 120.17 56.3994 121.366 58.0796 121.926 59.6084 122.865 61.3794 123.955 65.0728 126.225 69.6743 129.056 77.5303 129.056 85.3862 129.056 90.0181 126.21 93.7417 123.939 95.4976 122.865 97.0113 121.926 98.6611 121.381 102.294 120.186 105.473 120.064 108.031 119.959 110.468 119.868 112.405 119.792 113.919 118.748 115.402 117.733 115.826 116.205 116.023 115.054 116.129 114.494 116.205 113.98 116.522 113.556 116.795 113.192 117.431 112.95 117.733 112.844 118.188 112.708 118.672 112.572 119.232 112.42 121.139 111.906 123.516 111.315 126.422 109.666 129.858 107.698 130.1 105.261 129.737 104.065Z" fill="#FFFFFF" fill-rule="nonzero" fill-opacity="1" transform="matrix(1.00645 0 0 1 69.0001 121)"/><path d="M132.749 102.884C131.977 100.78 130.509 99.6602 128.829 98.7217 128.511 98.5401 128.223 98.3887 127.981 98.2676 127.481 98.0103 126.967 97.7529 126.452 97.4956 121.215 94.7256 117.143 91.229 114.313 87.0816 113.359 85.689 112.693 84.4175 112.224 83.3882 111.981 82.6919 111.997 82.2984 112.163 81.9502 112.299 81.6777 112.647 81.3902 112.829 81.2539 113.722 80.6636 114.661 80.0581 115.281 79.6494 116.401 78.9229 117.294 78.3477 117.855 77.9541 120.004 76.4556 121.502 74.8662 122.441 73.0801 123.758 70.5674 123.924 67.7066 122.91 64.9971 121.487 61.2583 117.96 58.9273 113.662 58.9273 112.769 58.9273 111.876 59.0332 110.967 59.2149 110.725 59.2603 110.498 59.3208 110.271 59.3814 110.316 56.8384 110.256 54.1138 110.029 51.4649 109.227 42.1104 105.957 37.2212 102.536 33.3159 101.113 31.6812 98.6309 29.3047 94.9224 27.1704 89.7456 24.2036 83.8726 22.7051 77.4697 22.7051 71.082 22.7051 65.2241 24.2036 60.0322 27.1704 56.2935 29.3047 53.8262 31.6963 52.4033 33.3159 48.9824 37.2212 45.7129 42.1255 44.9107 51.4649 44.6836 54.1289 44.6231 56.8384 44.6685 59.3814 44.4414 59.3208 44.1992 59.2754 43.9722 59.2149 43.0791 59.0181 42.1709 58.9273 41.2778 58.9273 36.9941 58.9273 33.4522 61.2583 32.0293 64.9971 31.0151 67.6914 31.1816 70.5674 32.4985 73.0801 33.437 74.8662 34.9356 76.4556 37.085 77.9541 37.6602 78.3477 38.5381 78.9229 39.6582 79.6494 40.2637 80.043 41.1567 80.6182 42.0195 81.1934 42.1558 81.2842 42.625 81.6323 42.7764 81.9502 42.958 82.3286 42.958 82.7222 42.7007 83.4639 42.2466 84.478 41.5806 85.7193 40.6572 87.0816 37.8872 91.1382 33.9214 94.5742 28.8657 97.314 26.1865 98.7368 23.4014 99.6904 22.2207 102.884 21.3276 105.306 21.918 108.046 24.1733 110.362L24.1733 110.362C24.915 111.164 25.8535 111.86 27.019 112.511 29.7739 114.04 32.1353 114.782 33.9819 115.296 34.2998 115.387 35.0566 115.629 35.3897 115.917 36.207 116.628 36.0859 117.718 37.1909 119.308 37.8569 120.292 38.6138 120.973 39.2495 121.397 41.5503 122.986 44.1235 123.077 46.8633 123.183 49.3306 123.273 52.1309 123.379 55.3399 124.439 56.6719 124.878 58.0493 125.726 59.6387 126.709 63.4834 129.071 68.7207 132.295 77.5 132.295 86.2793 132.295 91.562 129.056 95.4068 126.694 96.9961 125.726 98.3584 124.878 99.645 124.454 102.839 123.395 105.639 123.289 108.122 123.198 110.861 123.092 113.435 123.001 115.735 121.412 116.462 120.912 117.355 120.095 118.082 118.854 118.869 117.522 118.854 116.568 119.595 115.932 119.898 115.675 120.564 115.433 120.912 115.327 122.774 114.812 125.15 114.07 127.966 112.511 129.207 111.83 130.191 111.073 130.948 110.21 130.963 110.195 130.963 110.195 130.978 110.18 133.097 107.91 133.627 105.23 132.749 102.884ZM124.954 107.062C120.201 109.681 117.037 109.408 114.57 110.998 112.481 112.345 113.722 115.236 112.193 116.295 110.332 117.582 104.807 116.205 97.6924 118.551 91.8194 120.488 88.0654 126.074 77.5 126.074 66.9043 126.074 63.2564 120.519 57.3076 118.551 50.1934 116.205 44.6685 117.582 42.8066 116.295 41.293 115.251 42.5191 112.345 40.4302 110.998 37.978 109.408 34.7993 109.696 30.0464 107.062 27.019 105.382 28.7295 104.353 29.7437 103.868 46.9844 95.5278 49.7241 82.6465 49.8452 81.6777 49.9966 80.5274 50.1631 79.604 48.8765 78.4385 47.6504 77.3032 42.186 73.9126 40.6724 72.8682 38.1597 71.1123 37.0547 69.3716 37.8721 67.2222 38.4321 65.7388 39.8247 65.1787 41.293 65.1787 41.7471 65.1787 42.2163 65.2393 42.6553 65.3301 45.4102 65.9356 48.0894 67.313 49.6333 67.6763 49.8452 67.7217 50.0269 67.752 50.2085 67.752 51.0259 67.752 51.3286 67.3433 51.2681 66.3897 51.0864 63.3775 50.6626 57.5044 51.1318 52.0249 51.7827 44.4868 54.2197 40.7329 57.1108 37.4331 58.5034 35.8438 65.0122 28.9565 77.4849 28.9565 89.9878 28.9565 96.4815 35.8438 97.8589 37.4331 100.75 40.7481 103.187 44.4868 103.838 52.0249 104.307 57.5044 103.898 63.3775 103.702 66.3897 103.641 67.3887 103.944 67.752 104.761 67.752 104.928 67.752 105.125 67.7217 105.336 67.6763 106.88 67.2979 109.56 65.9204 112.314 65.3301 112.769 65.2393 113.223 65.1787 113.677 65.1787 115.145 65.1787 116.538 65.7388 117.098 67.2222 117.915 69.3716 116.81 71.1275 114.297 72.8682 112.784 73.9277 107.319 77.3032 106.093 78.4385 104.822 79.6192 104.988 80.5274 105.125 81.6777 105.246 82.6465 108.001 95.5278 125.226 103.868 126.271 104.353 127.981 105.382 124.954 107.062Z" fill="#000000" fill-rule="nonzero" fill-opacity="1" transform="matrix(1.00645 0 0 1 69.0001 121)"/></g></g></g></g></g></svg>